<?xml version="1.0" encoding="UTF-8" standalone="no"?>
<!-- Created with Inkscape (http://www.inkscape.org/) -->

<svg
   xmlns:dc="http://purl.org/dc/elements/1.1/"
   xmlns:cc="http://creativecommons.org/ns#"
   xmlns:rdf="http://www.w3.org/1999/02/22-rdf-syntax-ns#"
   xmlns:svg="http://www.w3.org/2000/svg"
   xmlns="http://www.w3.org/2000/svg"
   xmlns:sodipodi="http://sodipodi.sourceforge.net/DTD/sodipodi-0.dtd"
   xmlns:inkscape="http://www.inkscape.org/namespaces/inkscape"
   width="256"
   height="256"
   viewBox="0 0 256 256"
   id="svg3396"
   version="1.1"
   inkscape:version="0.91 r13725"
   sodipodi:docname="neutral.svg">
  <sodipodi:namedview
     id="base"
     pagecolor="#ffffff"
     bordercolor="#666666"
     borderopacity="1.0"
     inkscape:pageopacity="0.0"
     inkscape:pageshadow="2"
     inkscape:zoom="1"
     inkscape:cx="227.25201"
     inkscape:cy="-293.09952"
     inkscape:document-units="px"
     inkscape:current-layer="layer1"
     showgrid="false"
     units="px"
     fit-margin-top="0"
     fit-margin-left="0"
     fit-margin-right="0"
     fit-margin-bottom="0"
     inkscape:window-width="2495"
     inkscape:window-height="1416"
     inkscape:window-x="2625"
     inkscape:window-y="24"
     inkscape:window-maximized="1" />
  <defs
     id="defs3398" />
  <metadata
     id="metadata3401">
    <rdf:RDF>
      <cc:Work
         rdf:about="">
        <dc:format>image/svg+xml</dc:format>
        <dc:type
           rdf:resource="http://purl.org/dc/dcmitype/StillImage" />
        <dc:title />
      </cc:Work>
    </rdf:RDF>
  </metadata>
  <g
     id="layer1"
     inkscape:groupmode="layer"
     inkscape:label="Layer 1">
    <path
       d="M72.046426 31.99999C34.6615106667 53.3333233333 15.969053 85.3333233333 15.969053 127.99999C15.969053 170.666656667 34.6615106667 202.66664 72.046426 223.99994C90.697622 234.707473333 109.348816667 240.06124 128.00001 240.06124C146.651203333 240.06124 165.302396667 234.707473333 183.95359 223.99994C221.33851 202.66664 240.03097 170.666656667 240.03097 127.99999C240.03097 85.3333233333 221.33851 53.3333233333 183.95359 31.99999C165.302396667 21.29245 146.651203333 15.93868 128.00001 15.93868C109.348816667 15.93868 90.697622 21.29245 72.046426 31.99999C72.046426 31.99999 72.046426 31.99999 72.046426 31.99999M64.000005 237.60924C21.3333346806 213.251586667 -4.7913742e-07 176.71517 -4.7913742e-07 127.99999C-4.7913742e-07 79.2847966667 21.3333346806 42.7484 64.000005 18.3908C85.374603 6.13026 106.707938 -1.00000000884e-05 128.00001 -9.99999997475e-06C149.292083333 -1.00000000884e-05 170.625416667 6.13026 192.00001 18.3908C234.666683333 42.7484 256.00002 79.2847966667 256.00002 127.99999C256.00002 176.71517 234.666683333 213.251586667 192.00001 237.60924C170.625416667 249.869706667 149.292083333 255.99994 128.00001 255.99994C106.707938 255.99994 85.374603 249.869706667 64.000005 237.60924C64.000005 237.60924 64.000005 237.60924 64.000005 237.60924"
       style="stroke-width:1.41421356237;stroke-linejoin:miter;letter-spacing:0px;font-family:sans-serif;stroke-opacity:1;fill-opacity:1;font-size:medium;line-height:125%;word-spacing:0px;stroke:none;stroke-linecap:butt;font-weight:normal;font-style:normal;fill:#e5ece1"
       id="path4954" />
    <path
       d="M56.000002 113.39507C56.000002 113.39507 200.0 113.39507 200.0 113.39507C200.0 113.39507 200.0 142.60474 200.0 142.60474C200.0 142.60474 56.000002 142.60474 56.000002 142.60474C56.000002 142.60474 56.000002 113.39507 56.000002 113.39507C56.000002 113.39507 56.000002 113.39507 56.000002 113.39507"
       style="stroke-width:1.41421356237;stroke-linejoin:miter;letter-spacing:0px;font-family:sans-serif;stroke-opacity:1;fill-opacity:1;font-size:medium;line-height:125%;word-spacing:0px;stroke:none;stroke-linecap:butt;font-weight:normal;font-style:normal;fill:#e5ece1"
       id="path4957" />
  </g>
</svg>
