<?xml version="1.0" encoding="UTF-8" standalone="no"?>
<!-- Created with Inkscape (http://www.inkscape.org/) -->

<svg
   xmlns:dc="http://purl.org/dc/elements/1.1/"
   xmlns:cc="http://creativecommons.org/ns#"
   xmlns:rdf="http://www.w3.org/1999/02/22-rdf-syntax-ns#"
   xmlns:svg="http://www.w3.org/2000/svg"
   xmlns="http://www.w3.org/2000/svg"
   xmlns:sodipodi="http://sodipodi.sourceforge.net/DTD/sodipodi-0.dtd"
   xmlns:inkscape="http://www.inkscape.org/namespaces/inkscape"
   width="256"
   height="256"
   viewBox="0 0 256 256"
   id="svg3396"
   version="1.1"
   inkscape:version="0.91 r13725"
   sodipodi:docname="positive.svg">
  <sodipodi:namedview
     id="base"
     pagecolor="#ffffff"
     bordercolor="#666666"
     borderopacity="1.0"
     inkscape:pageopacity="0.0"
     inkscape:pageshadow="2"
     inkscape:zoom="1.4"
     inkscape:cx="541.61523"
     inkscape:cy="4.4457307"
     inkscape:document-units="px"
     inkscape:current-layer="layer1"
     showgrid="false"
     units="px"
     fit-margin-top="0"
     fit-margin-left="0"
     fit-margin-right="0"
     fit-margin-bottom="0"
     inkscape:window-width="2495"
     inkscape:window-height="1416"
     inkscape:window-x="2625"
     inkscape:window-y="24"
     inkscape:window-maximized="1" />
  <defs
     id="defs3398" />
  <metadata
     id="metadata3401">
    <rdf:RDF>
      <cc:Work
         rdf:about="">
        <dc:format>image/svg+xml</dc:format>
        <dc:type
           rdf:resource="http://purl.org/dc/dcmitype/StillImage" />
        <dc:title />
      </cc:Work>
    </rdf:RDF>
  </metadata>
  <g
     id="layer1"
     inkscape:groupmode="layer"
     inkscape:label="Layer 1">
    <g
       id="text3404"
       style="stroke-width:1.41424634299;stroke-linejoin:miter;letter-spacing:0px;font-family:sans-serif;stroke-opacity:1;fill-opacity:1;font-size:252.30706787px;line-height:125%;word-spacing:0px;stroke:none;stroke-linecap:butt;font-weight:normal;font-style:normal;fill:#95d600">
      <path
         id="path4752"
         style=""
         d="M72.0464264194 31.9999850895C34.6615107263 53.3333206232 15.9690528797 85.3333239237 15.9690528797 127.999994991C15.9690528797 170.666659424 34.6615107263 202.666646138 72.0464264194 223.999955133C90.6976204986 234.707502365 109.348814243 240.061275982 128.000007652 240.061275982C146.651202401 240.061275982 165.30239715 234.707502365 183.953591899 223.999955133C221.338510942 202.666646138 240.030970463 170.666659424 240.030970463 127.999994991C240.030970463 85.3333239237 221.338510942 53.3333206232 183.953591899 31.9999850895C165.30239715 21.2924511262 146.651202401 15.9386841445 128.000007652 15.9386841445C109.348814243 15.9386841445 90.6976204986 21.2924511262 72.0464264194 31.9999850895C72.0464264194 31.9999850895 72.0464264194 31.9999850895 72.0464264194 31.9999850895M64.0000048308 237.609204673C21.3333346242 213.251571559 -4.7913742246e-07 176.715168332 -4.7913742246e-07 127.999994991C-4.7913742246e-07 79.2847951112 21.3333346242 42.7483952013 64.0000048308 18.3907952614C85.374602872 6.13025958111 106.707937146 -8.25901622648e-06 128.000007652 -8.25901611279e-06C149.292080838 -8.25901622648e-06 170.625415446 6.13025958111 192.000011478 18.3907952614C234.666680695 42.7483952013 256.000015304 79.2847951112 256.000015304 127.999994991C256.000015304 176.715168332 234.666680695 213.251571559 192.000011478 237.609204673C170.625415446 249.869727084 149.292080838 255.999988289 128.000007652 255.999988289C106.707937146 255.999988289 85.374602872 249.869727084 64.0000048308 237.609204673C64.0000048308 237.609204673 64.0000048308 237.609204673 64.0000048308 237.609204673" />
    </g>
    <g
       id="text3408"
       style="stroke-width:1.41696541643;stroke-linejoin:miter;letter-spacing:0px;font-family:sans-serif;stroke-opacity:1;fill-opacity:1;font-size:291.66265869px;line-height:125%;word-spacing:0px;stroke:none;stroke-linecap:butt;font-weight:normal;font-style:normal;fill:#95d600">
      <path
         id="path4755"
         style=""
         d="M74.7521051662 143.803296491C78.2950429328 143.803296491 80.9749578144 146.978490895 82.7918498109 153.328879704C86.4256325282 165.235856978 89.014702778 171.189345615 90.5590605604 171.189345615C91.740039816 171.189345615 92.9664415468 170.197096928 94.238265753 168.212599555C119.765590362 123.561440002 143.385177706 87.443611491 165.097027783 59.8591140229C170.729396863 52.7149248714 179.677590058 49.1428302956 191.941607366 49.1428302956C194.848634306 49.1428302956 196.801790539 49.4405045533 197.801076066 50.0358530687C198.800367971 50.631201584 199.300013924 51.3753907119 199.300013924 52.2684204523C199.300013924 53.6575623431 197.801079255 56.3862418772 194.803209917 60.4544590546C159.737201847 106.494767466 127.214844741 155.114921766 97.2361385998 206.314921955C95.1467117513 209.887013047 90.877016293 211.673058593 84.427052225 211.673058593C77.8862425685 211.673058593 74.0253481125 211.375384335 72.8443688569 210.78003582C69.7556532921 209.291664532 66.1218702559 201.700967477 61.9430197483 188.007944657C57.2191020883 172.826550548 54.8571432583 163.300970819 54.8571432583 159.43120547C54.8571432583 155.263765862 58.0367034548 151.2451599 64.3958238479 147.375387583C68.3021401414 144.993993521 71.7542339142 143.803296491 74.7521051662 143.803296491C74.7521051662 143.803296491 74.7521051662 143.803296491 74.7521051662 143.803296491" />
    </g>
  </g>
</svg>
