<?xml version="1.0" encoding="UTF-8" standalone="no"?>
<!-- Created with Inkscape (http://www.inkscape.org/) -->

<svg
   xmlns:dc="http://purl.org/dc/elements/1.1/"
   xmlns:cc="http://creativecommons.org/ns#"
   xmlns:rdf="http://www.w3.org/1999/02/22-rdf-syntax-ns#"
   xmlns:svg="http://www.w3.org/2000/svg"
   xmlns="http://www.w3.org/2000/svg"
   xmlns:sodipodi="http://sodipodi.sourceforge.net/DTD/sodipodi-0.dtd"
   xmlns:inkscape="http://www.inkscape.org/namespaces/inkscape"
   width="256"
   height="256"
   viewBox="0 0 256 256"
   id="svg3396"
   version="1.1"
   inkscape:version="0.91 r13725"
   sodipodi:docname="summary.svg">
  <sodipodi:namedview
     id="base"
     pagecolor="#ffffff"
     bordercolor="#666666"
     borderopacity="1.0"
     inkscape:pageopacity="0.0"
     inkscape:pageshadow="2"
     inkscape:zoom="1.4"
     inkscape:cx="50.909607"
     inkscape:cy="53.946481"
     inkscape:document-units="px"
     inkscape:current-layer="layer1"
     showgrid="false"
     units="px"
     fit-margin-top="0"
     fit-margin-left="0"
     fit-margin-right="0"
     fit-margin-bottom="0"
     inkscape:window-width="2495"
     inkscape:window-height="1416"
     inkscape:window-x="2625"
     inkscape:window-y="24"
     inkscape:window-maximized="1" />
  <defs
     id="defs3398" />
  <metadata
     id="metadata3401">
    <rdf:RDF>
      <cc:Work
         rdf:about="">
        <dc:format>image/svg+xml</dc:format>
        <dc:type
           rdf:resource="http://purl.org/dc/dcmitype/StillImage" />
        <dc:title />
      </cc:Work>
    </rdf:RDF>
  </metadata>
  <g
     id="layer1"
     inkscape:groupmode="layer"
     inkscape:label="Layer 1">
    <g
       id="text3404"
       style="stroke-width:1.41424634299;stroke-linejoin:miter;letter-spacing:0px;font-family:sans-serif;stroke-opacity:1;fill-opacity:1;font-size:252.30706787px;line-height:125%;word-spacing:0px;stroke:none;stroke-linecap:butt;font-weight:normal;font-style:normal;fill:#00c1de">
      <path
         id="path4874"
         style=""
         d="M72.0464264194 31.9999850895C34.6615107263 53.3333206232 15.9690528797 85.3333239237 15.9690528797 127.999994991C15.9690528797 170.666659424 34.6615107263 202.666646138 72.0464264194 223.999955133C90.6976204986 234.707502365 109.348814243 240.061275982 128.000007652 240.061275982C146.651202401 240.061275982 165.30239715 234.707502365 183.953591899 223.999955133C221.338510942 202.666646138 240.030970463 170.666659424 240.030970463 127.999994991C240.030970463 85.3333239237 221.338510942 53.3333206232 183.953591899 31.9999850895C165.30239715 21.2924511262 146.651202401 15.9386841445 128.000007652 15.9386841445C109.348814243 15.9386841445 90.6976204986 21.2924511262 72.0464264194 31.9999850895C72.0464264194 31.9999850895 72.0464264194 31.9999850895 72.0464264194 31.9999850895M64.0000048308 237.609204673C21.3333346242 213.251571559 -4.7913742246e-07 176.715168332 -4.7913742246e-07 127.999994991C-4.7913742246e-07 79.2847951112 21.3333346242 42.7483952013 64.0000048308 18.3907952614C85.374602872 6.13025958111 106.707937146 -8.25901622648e-06 128.000007652 -8.25901611279e-06C149.292080838 -8.25901622648e-06 170.625415446 6.13025958111 192.000011478 18.3907952614C234.666680695 42.7483952013 256.000015304 79.2847951112 256.000015304 127.999994991C256.000015304 176.715168332 234.666680695 213.251571559 192.000011478 237.609204673C170.625415446 249.869727084 149.292080838 255.999988289 128.000007652 255.999988289C106.707937146 255.999988289 85.374602872 249.869727084 64.0000048308 237.609204673C64.0000048308 237.609204673 64.0000048308 237.609204673 64.0000048308 237.609204673" />
    </g>
    <g
       id="text4334"
       style="stroke-width:1.41421356237;stroke-linejoin:miter;letter-spacing:0px;font-family:sans-serif;stroke-opacity:1;fill-opacity:1;font-size:252.70951843px;line-height:125%;word-spacing:0px;stroke:none;stroke-linecap:butt;font-weight:normal;font-style:normal;fill:#00c1de">
      <path
         id="path4877"
         style=""
         d="M116.648 85.7995C116.648 85.7995 139.35237 85.7995 139.35237 85.7995C139.35237 85.7995 139.35237 224.00004 139.35237 224.00004C139.35237 224.00004 116.648 224.00004 116.648 224.00004C116.648 224.00004 116.648 85.7995 116.648 85.7995C116.648 85.7995 116.648 85.7995 116.648 85.7995M116.648 32.00002C116.648 32.00002 139.35237 32.00002 139.35237 32.00002C139.35237 32.00002 139.35237 60.75066 139.35237 60.75066C139.35237 60.75066 116.648 60.75066 116.648 60.75066C116.648 60.75066 116.648 32.00002 116.648 32.00002C116.648 32.00002 116.648 32.00002 116.648 32.00002" />
    </g>
  </g>
</svg>
